USFL
nRows=108
nColumns=2
inDegrees=yes
endheader
time	soleus_r	
2.43347	 47.753120	
2.50504	 47.594594	
2.57661	 47.529994	
2.64819	 47.508876	
2.71976	 47.614650	
2.79133	 47.590335	
2.8629	 47.601656	
2.93448	 47.585555	
3.00605	 47.589675	
3.07762	 47.535874	
3.14919	 47.494460	
3.22077	 47.779526	
3.29234	 47.810019	
3.36391	 47.812433	
3.43548	 47.825967	
3.50706	 47.793622	
3.57863	 47.883936	
3.6502	 47.819435	
3.72177	 47.740476	
3.79335	 47.480581	
3.86492	 47.352414	
3.93649	 47.353261	
4.00806	 46.772542	
4.07964	 47.061551	
4.15121	 46.808871	
4.22278	 46.803892	
4.29435	 47.165320	
4.36593	 46.997877	
4.4375	 46.475444	
4.50907	 46.897541	
4.58065	 46.407699	
4.65222	 46.476997	
4.72379	 46.520876	
4.79536	 46.389010	
4.86694	 46.217328	
4.93851	 46.657741	
5.01008	 49.329755	
5.08165	 40.354058	
5.15323	 36.497065	
5.2248	 32.580068	
5.29637	 31.944806	
5.36794	 29.626522	
5.43952	 29.852714	
5.51109	 29.176404	
5.58266	 29.265196	
5.65423	 32.323962	
5.72581	 30.701425	
5.79738	 30.085552	
5.86895	 29.383349	
5.94052	 27.225880	
6.0121	 27.333764	
6.08367	 30.287575	
6.15524	 29.348099	
6.22681	 29.065110	
6.29839	 30.418588	
6.36996	 29.533135	
6.44153	 29.605150	
6.5131	 29.239448	
6.58468	 28.809371	
6.65625	 28.931183	
6.72782	 28.909843	
6.7994	 28.661852	
6.87097	 28.801405	
6.94254	 28.509249	
7.01411	 28.940049	
7.08569	 28.939360	
7.15726	 29.106042	
7.22883	 29.017995	
7.3004	 28.994710	
7.37198	 28.849127	
7.44355	 28.854740	
7.51512	 28.848715	
7.58669	 28.950061	
7.65827	 28.662174	
7.72984	 28.466736	
7.80141	 28.405251	
7.87298	 28.398996	
7.94456	 28.265747	
8.01613	 28.894043	
8.0877	 28.207377	
8.15927	 28.179452	
8.23085	 28.551147	
8.30242	 28.609761	
8.37399	 28.536789	
8.44556	 28.540725	
8.51714	 28.513644	
8.58871	 28.582801	
8.66028	 28.660443	
8.73185	 28.827189	
8.80343	 28.831062	
8.875	 28.637757	
8.94657	 28.915872	
9.01815	 28.882650	
9.08972	 28.900444	
9.16129	 28.939663	
9.23286	 28.948451	
9.30444	 27.945869	
9.37601	 26.966971	
9.44758	 26.968381	
9.51915	 28.418731	
9.59073	 28.317290	
9.6623	 28.383684	
9.73387	 28.345131	
9.80544	 34.800936	
9.87702	 35.427023	
9.94859	 35.491832	
10.0202	 35.503541	
10.0917	 35.540960	
